<svg id="Layer_1" data-name="Layer 1" xmlns="http://www.w3.org/2000/svg" viewBox="0 0 2768.43 464.34"><defs><style>.cls-1{font-size:113px;fill:#fff;stroke:#000;stroke-miterlimit:10;font-family:EthnocentricRg-Regular, Ethnocentric;letter-spacing:0.14em;}</style></defs><path d="M544.75,238.37c0,114.61-78.64,165.92-234.49,165.92-156.33,0-234.5-51.31-234.5-165.92S153.93,72.93,310.26,72.93C466.11,72.93,544.75,123.76,544.75,238.37Zm-98.78,0c0-69.05-36-82-135.71-82s-135.71,12.95-135.71,82,36,82.48,135.71,82.48S446,307.43,446,238.37Z"/><path d="M681,399l59.94-82.48h80.56c19.18,0,41.72,0,57.07,1C869.89,306,856.46,286.33,845.91,271L788.36,186.1,637.79,399H520.3L726,108.9c13.43-18.7,33.09-36,64.26-36,29.73,0,49.4,15.83,63.3,36L1054,399Z"/><path d="M1448.21,316.54,1384.43,399H1223.31c-111.26,0-193.26-70.49-193.26-163.52,0-94,82-157.29,193.26-157.29h224.9l-63.78,83.44H1223.31c-53.71,0-94,32.13-94,78.16,0,45.56,39.8,76.73,94,76.73Z"/><path d="M1855.34,316.54,1791.56,399H1482.74V78.21h371.64l-64.26,83.44H1582.48V200h254.15l-57.06,72.89H1582.48v43.64Z"/><path d="M2348.78,78.21,2158.4,293V399h-99.74V292.56L1863,78.21h127.56l76.72,89.19c10.07,11.51,36.93,40.76,43.64,50.35,6.23-9.11,17.26-23,40.28-50.83l72.89-88.71Z"/><rect x="2212.98" y="293.01" width="446.71" height="109.28"/><text class="cls-1" transform="translate(2244.29 385.73)">hcm</text></svg>